HIERARCHY
ROOT SpineBase
{
  OFFSET 0.000000 0.000000 0.000000
  CHANNELS 6 Xposition Yposition Zposition Zrotation Xrotation Yrotation
  JOINT SpineMid
  {
    OFFSET 0.000000 28.866484 0.000000
    CHANNELS 3 Zrotation Xrotation Yrotation
    JOINT SpineShoulder
    {
      OFFSET 0.103067 21.492835 -0.843563
      CHANNELS 3 Zrotation Xrotation Yrotation
      JOINT Neck
      {
        OFFSET 0.011064 7.127520 -0.624601
        CHANNELS 3 Zrotation Xrotation Yrotation
        JOINT Head
        {
          OFFSET -1.783726 12.336122 -0.520421
          CHANNELS 3 Zrotation Xrotation Yrotation
          End Site
          {
            OFFSET 0 0 0
          }
        }
      }
      JOINT ShoulderLeft
      {
        OFFSET -16.757826 -2.663483 2.048078
        CHANNELS 3 Zrotation Xrotation Yrotation
        JOINT ElbowLeft
        {
          OFFSET -4.323932 -26.112565 1.250916
          CHANNELS 3 Zrotation Xrotation Yrotation
          JOINT WristLeft
          {
            OFFSET -1.005592 -20.585367 -5.808512
            CHANNELS 3 Zrotation Xrotation Yrotation
            JOINT HandLeft
            {
              OFFSET 0.671330 -5.058055 -2.231712
              CHANNELS 3 Zrotation Xrotation Yrotation
              JOINT HandTipLeft
              {
                OFFSET -0.669494 -7.073684 -0.053605
                CHANNELS 3 Zrotation Xrotation Yrotation
                End Site
                {
                  OFFSET 0 0 0
                }
              }
              JOINT ThumbLeft
              {
                OFFSET -3.467589 1.406358 -0.413290
                CHANNELS 3 Zrotation Xrotation Yrotation
                End Site
                {
                  OFFSET 0 0 0
                }
              }
            }
          }
        }
      }
      JOINT ShoulderRight
      {
        OFFSET 15.458877 -1.561955 -4.710424
        CHANNELS 3 Zrotation Xrotation Yrotation
        JOINT ElbowRight
        {
          OFFSET 2.972266 -25.543790 1.168260
          CHANNELS 3 Zrotation Xrotation Yrotation
          JOINT WristRight
          {
            OFFSET -1.427125 -20.666097 -8.138314
            CHANNELS 3 Zrotation Xrotation Yrotation
            JOINT HandRight
            {
              OFFSET -2.627254 -4.524976 0.257880
              CHANNELS 3 Zrotation Xrotation Yrotation
              JOINT HandTipRight
              {
                OFFSET -0.221589 -6.497660 -0.570509
                CHANNELS 3 Zrotation Xrotation Yrotation
                End Site
                {
                  OFFSET 0 0 0
                }
              }
              JOINT ThumbRight
              {
                OFFSET -3.111650 1.219870 -0.351148
                CHANNELS 3 Zrotation Xrotation Yrotation
                End Site
                {
                  OFFSET 0 0 0
                }
              }
            }
          }
        }
      }
    }
  }
  JOINT HipLeft
  {
    OFFSET -7.600308 0.851558 -1.905071
    CHANNELS 3 Zrotation Xrotation Yrotation
    JOINT KneeLeft
    {
      OFFSET -5.232951 -27.917557 -1.696056
      CHANNELS 3 Zrotation Xrotation Yrotation
      JOINT AnkleLeft
      {
        OFFSET 1.014771 -33.803106 7.907555
        CHANNELS 3 Zrotation Xrotation Yrotation
        JOINT FootLeft
        {
          OFFSET -2.607578 -3.325704 -12.103661
          CHANNELS 3 Zrotation Xrotation Yrotation
          End Site
          {
            OFFSET 0 0 0
          }
        }
      }
    }
  }
  JOINT HipRight
  {
    OFFSET 6.509047 0.955222 -4.563848
    CHANNELS 3 Zrotation Xrotation Yrotation
    JOINT KneeRight
    {
      OFFSET 7.238740 -27.882766 3.272348
      CHANNELS 3 Zrotation Xrotation Yrotation
      JOINT AnkleRight
      {
        OFFSET 5.530591 -34.540480 6.060661
        CHANNELS 3 Zrotation Xrotation Yrotation
        JOINT FootRight
        {
          OFFSET 3.248115 -6.863757 -5.081123
          CHANNELS 3 Zrotation Xrotation Yrotation
          End Site
          {
            OFFSET 0 0 0
          }
        }
      }
    }
  }
}
MOTION
Frames: 10
Frame Time: 0.033333
44.547240 66.297907 332.382270 -5.625058 19.385676 -49.035418 -1.707965 0.786009 49.670187 0.222368 1.612864 -0.083295 -34.335661 29.708012 11.890250 0.000000 0.000000 0.000000 -14.844807 -2.999595 -7.199129 16.412661 -14.743418 7.405348 26.207079 -32.009222 -8.513443 -7.480737 15.959933 13.740705 0.000000 0.000000 0.000000 0.000000 0.000000 0.000000 -8.872106 -20.537548 -4.215135 24.319338 4.266848 -3.996015 27.594005 21.778176 -19.281706 -26.246055 7.974292 6.318970 0.000000 0.000000 0.000000 0.000000 0.000000 0.000000 15.585886 -20.444373 52.315128 1.323556 0.054219 -4.237211 20.524840 1.342541 -41.788180 0.000000 0.000000 0.000000 8.377647 -9.134154 50.852249 -4.901622 -14.628308 -6.139892 32.657578 37.354842 -6.517732 0.000000 0.000000 0.000000
45.647678 65.872575 332.276918 -5.154331 20.849677 -53.102277 -1.472367 0.851837 53.788856 0.240267 1.447847 -0.049594 -33.727471 29.406481 11.148974 0.000000 0.000000 0.000000 -14.062427 -1.568360 -7.368741 16.405064 -16.166682 7.844022 23.097278 -29.584920 -7.397789 -3.261220 10.093478 12.348060 0.000000 0.000000 0.000000 0.000000 0.000000 0.000000 -7.964190 -16.900360 -2.832909 22.410926 2.446822 -3.540886 27.842459 17.820742 -15.817697 -26.167321 7.912994 5.608898 0.000000 0.000000 0.000000 0.000000 0.000000 0.000000 18.499333 -21.733737 57.054741 0.864436 1.146511 -4.644344 21.905190 1.058408 -42.649025 0.000000 0.000000 0.000000 8.341753 -9.680178 54.975501 -5.227609 -15.684392 -6.891767 34.612948 36.555593 -7.463742 0.000000 0.000000 0.000000
46.324712 65.593596 332.431490 -4.814507 21.830654 -56.366366 -1.366773 1.006002 57.102541 0.239588 1.354065 -0.024350 -33.812975 28.650835 10.281608 0.000000 0.000000 0.000000 -13.439770 0.382569 -7.532321 16.592986 -18.271108 8.483158 19.777803 -25.905771 -6.484262 1.966723 2.825616 11.096814 0.000000 0.000000 0.000000 0.000000 0.000000 0.000000 -6.017824 -11.043558 -0.720521 19.795217 -1.816802 -3.104971 26.730687 14.737045 -13.169491 -25.365923 -2.082022 6.615363 0.000000 0.000000 0.000000 0.000000 0.000000 0.000000 21.062346 -22.043659 60.869467 0.122782 2.117889 -4.877119 22.975253 0.687968 -43.225783 0.000000 0.000000 0.000000 8.440593 -9.675011 58.376881 -5.954722 -16.472269 -7.613191 36.093758 35.866989 -8.078398 0.000000 0.000000 0.000000
46.834973 65.612678 332.642825 -4.691738 22.836748 -57.291053 -1.154161 1.187040 58.114208 0.249284 1.172186 -0.005712 -33.855636 28.052883 9.616128 0.000000 0.000000 0.000000 -13.132097 2.775263 -7.772882 17.001264 -21.188931 9.385193 17.116983 -20.271368 -5.785839 3.785119 -3.585225 10.267286 0.000000 0.000000 0.000000 0.000000 0.000000 0.000000 -3.569426 -4.027988 1.547804 16.723331 -7.538484 -2.984451 26.215580 15.142184 -14.588998 -26.632101 -11.178237 8.147637 0.000000 0.000000 0.000000 0.000000 0.000000 0.000000 22.211500 -21.758178 61.902159 -1.344275 1.790978 -4.957498 24.072172 0.509159 -43.806269 0.000000 0.000000 0.000000 8.914696 -9.983460 59.430253 -6.726357 -16.741852 -8.103616 37.435874 35.237963 -8.666098 0.000000 0.000000 0.000000
47.202198 65.642483 332.975971 -4.425541 23.484637 -59.097884 -0.934187 1.201230 59.933642 0.219678 1.026115 0.001046 -34.454657 27.181848 8.863078 0.000000 0.000000 0.000000 -13.240126 5.491911 -8.022555 17.654763 -24.740842 10.444094 15.120957 -11.033406 -5.148791 5.886586 -14.631325 10.285327 0.000000 0.000000 0.000000 0.000000 0.000000 0.000000 -1.297039 3.194551 3.485821 14.065314 -13.739007 -3.248382 28.138192 19.279832 -20.220079 -28.419849 -21.776815 10.245387 0.000000 0.000000 0.000000 0.000000 0.000000 0.000000 23.383960 -21.545431 63.827392 -2.222912 1.797517 -5.080314 24.958660 0.339955 -44.284191 0.000000 0.000000 0.000000 8.784222 -9.902852 61.363054 -7.349496 -17.329859 -8.704262 38.473317 34.597755 -9.083271 0.000000 0.000000 0.000000
47.442444 65.794278 333.277049 -4.354119 24.117801 -59.909661 -0.936772 1.266087 60.778667 0.238955 1.066734 0.018290 -35.012400 26.960110 8.518070 0.000000 0.000000 0.000000 -13.541632 7.638986 -8.404775 19.394126 -27.974654 11.795556 12.899306 -5.889660 -4.429977 6.825822 -19.811532 9.760906 0.000000 0.000000 0.000000 0.000000 0.000000 0.000000 0.745563 8.648022 4.917506 12.062177 -19.262088 -3.668820 29.755672 20.834412 -22.496338 -31.730174 -26.740518 9.716806 0.000000 0.000000 0.000000 0.000000 0.000000 0.000000 23.922056 -21.088177 64.568489 -3.130556 1.349847 -5.119373 25.642880 0.088410 -44.843569 0.000000 0.000000 0.000000 9.177914 -9.690841 62.379342 -8.290184 -17.612618 -9.208989 39.543038 34.059799 -9.628060 0.000000 0.000000 0.000000
47.609477 66.039907 333.575381 -4.283549 24.579206 -61.006742 -0.936805 1.280624 61.891568 0.266303 1.090542 0.034950 -36.618541 26.404638 7.954007 0.000000 0.000000 0.000000 -13.884361 9.213441 -8.705426 21.161025 -30.429090 13.017802 12.242265 -7.556317 -4.602530 1.937464 -15.927660 8.643450 0.000000 0.000000 0.000000 0.000000 0.000000 0.000000 2.051712 12.159393 5.757887 11.241363 -24.022256 -3.769148 31.635769 22.354035 -24.302464 -34.646085 -30.817218 8.865606 0.000000 0.000000 0.000000 0.000000 0.000000 0.000000 24.475876 -20.558342 65.596990 -3.654015 1.096576 -5.121356 26.023657 -0.230162 -45.346177 0.000000 0.000000 0.000000 9.198835 -9.233230 63.712541 -9.042645 -18.197952 -9.777888 40.343902 33.584991 -10.118895 0.000000 0.000000 0.000000
47.614215 66.032739 333.727684 -4.266884 24.899545 -58.894529 -0.887397 1.301951 59.786047 0.087273 1.049263 -0.021148 -38.070403 25.433385 7.250792 0.000000 0.000000 0.000000 -14.171911 10.062054 -8.857995 23.529087 -31.555679 14.157009 9.911323 -12.069393 -4.370704 -1.027801 -9.320142 7.811818 0.000000 0.000000 0.000000 0.000000 0.000000 0.000000 2.707433 12.938174 6.063475 12.276432 -26.592107 -3.336076 33.335627 22.345986 -23.653654 -40.413517 -27.665321 5.666303 0.000000 0.000000 0.000000 0.000000 0.000000 0.000000 22.996218 -20.899606 63.106142 -3.759408 0.164093 -5.024473 26.036976 -0.706974 -45.788283 0.000000 0.000000 0.000000 10.863628 -9.625713 61.643271 -10.294976 -16.678928 -9.429210 41.217962 33.161661 -10.518776 0.000000 0.000000 0.000000
47.650134 66.068334 334.046567 -4.474842 24.878892 -57.266368 -0.861875 1.144418 58.151184 -0.107784 0.906018 -0.103464 -38.557459 25.111783 7.265181 0.000000 0.000000 0.000000 -13.543991 11.032768 -8.611599 24.774311 -32.200539 14.847302 8.232107 -18.441300 -4.442791 -3.674459 -0.433673 7.957335 0.000000 0.000000 0.000000 0.000000 0.000000 0.000000 2.227835 10.435509 5.652513 15.481013 -21.262092 -3.324926 32.152788 20.369662 -21.109963 -43.172262 -22.119655 4.130240 0.000000 0.000000 0.000000 0.000000 0.000000 0.000000 21.403729 -20.810617 61.017758 -3.503318 -0.689525 -4.908878 25.821475 -0.951671 -45.573657 0.000000 0.000000 0.000000 11.030617 -9.572590 60.136613 -10.832706 -16.177404 -9.405611 41.274288 33.074010 -10.224500 0.000000 0.000000 0.000000
47.667091 66.124740 334.462440 -4.881024 24.538850 -55.776340 -0.905290 0.960756 56.667180 -0.262888 0.745786 -0.185536 -38.633777 25.191965 7.714812 0.000000 0.000000 0.000000 -12.535785 11.347114 -8.151654 25.091074 -31.687188 14.847546 6.583488 -26.170602 -4.633961 -5.577362 9.787470 8.713835 0.000000 0.000000 0.000000 0.000000 0.000000 0.000000 1.869469 9.688101 5.490196 17.371992 -20.424069 -2.896809 30.198589 19.097639 -18.734422 -42.412755 -17.445202 3.976179 0.000000 0.000000 0.000000 0.000000 0.000000 0.000000 20.344305 -20.393382 59.287335 -3.459093 -0.768052 -4.761902 25.587603 -1.185010 -44.888721 0.000000 0.000000 0.000000 10.276293 -9.347410 58.721543 -10.406555 -16.329230 -9.388186 40.566945 33.312299 -9.602195 0.000000 0.000000 0.000000
